STARTFONT 2.1
FONT -Monotype-Rockwell-Regular-R-Normal--12-120-72-72-P-57-iso8859-1
SIZE 12 72 72
FONTBOUNDINGBOX 13 15 -1 -3

STARTPROPERTIES 22
FOUNDRY "Monotype"
FAMILY_NAME "Rockwell"
WEIGHT_NAME "Regular"
SLANT "R"
SETWIDTH_NAME "Normal"
ADD_STYLE_NAME ""
PIXEL_SIZE 12
POINT_SIZE 120
RESOLUTION_X 72
RESOLUTION_Y 72
SPACING "P"
AVERAGE_WIDTH 57
CHARSET_REGISTRY "iso8859"
CHARSET_ENCODING "1"
COPYRIGHT "Copyright (c) 1996 Monotype Typography Ltd."
CAP_HEIGHT 10
X_HEIGHT 7
WEIGHT 10
QUAD_WIDTH 8
DEFAULT_CHAR 32
FONT_DESCENT 3
FONT_ASCENT 12
ENDPROPERTIES

CHARS 191

STARTCHAR space
ENCODING 32
SWIDTH 250 0
DWIDTH 4 0
BBX 0 0 0 0
BITMAP
ENDCHAR

STARTCHAR exclam
ENCODING 33
SWIDTH 292 0
DWIDTH 4 0
BBX 1 9 1 0
BITMAP
80
80
80
80
80
80
00
80
80
ENDCHAR

STARTCHAR quotedbl
ENCODING 34
SWIDTH 406 0
DWIDTH 5 0
BBX 4 4 0 5
BITMAP
90
90
90
90
ENDCHAR

STARTCHAR numbersign
ENCODING 35
SWIDTH 668 0
DWIDTH 9 0
BBX 9 9 0 0
BITMAP
1100
1100
1100
7F80
2200
2200
FF00
4400
4400
ENDCHAR

STARTCHAR dollar
ENCODING 36
SWIDTH 542 0
DWIDTH 7 0
BBX 5 10 1 -1
BITMAP
70
A8
A8
60
30
28
A8
A8
70
20
ENDCHAR

STARTCHAR percent
ENCODING 37
SWIDTH 969 0
DWIDTH 13 0
BBX 11 9 1 0
BITMAP
6040
9080
9100
9200
64C0
0920
1120
2120
40C0
ENDCHAR

STARTCHAR ampersand
ENCODING 38
SWIDTH 677 0
DWIDTH 9 0
BBX 8 9 1 0
BITMAP
30
48
50
20
63
94
88
98
66
ENDCHAR

STARTCHAR quoteright
ENCODING 39
SWIDTH 292 0
DWIDTH 4 0
BBX 2 4 1 5
BITMAP
40
40
40
80
ENDCHAR

STARTCHAR parenleft
ENCODING 40
SWIDTH 375 0
DWIDTH 5 0
BBX 3 12 1 -3
BITMAP
20
20
40
40
80
80
80
80
40
40
20
20
ENDCHAR

STARTCHAR parenright
ENCODING 41
SWIDTH 375 0
DWIDTH 5 0
BBX 3 12 0 -3
BITMAP
80
80
40
40
20
20
20
20
40
40
80
80
ENDCHAR

STARTCHAR asterisk
ENCODING 42
SWIDTH 521 0
DWIDTH 7 0
BBX 5 6 1 3
BITMAP
20
A8
70
70
A8
20
ENDCHAR

STARTCHAR plus
ENCODING 43
SWIDTH 667 0
DWIDTH 9 0
BBX 7 7 1 1
BITMAP
10
10
10
FE
10
10
10
ENDCHAR

STARTCHAR comma
ENCODING 44
SWIDTH 292 0
DWIDTH 4 0
BBX 2 4 0 -2
BITMAP
40
40
40
80
ENDCHAR

STARTCHAR minus
ENCODING 45
SWIDTH 667 0
DWIDTH 9 0
BBX 7 1 1 4
BITMAP
FE
ENDCHAR

STARTCHAR period
ENCODING 46
SWIDTH 292 0
DWIDTH 4 0
BBX 1 2 1 0
BITMAP
80
80
ENDCHAR

STARTCHAR slash
ENCODING 47
SWIDTH 438 0
DWIDTH 6 0
BBX 5 9 1 0
BITMAP
08
10
10
20
20
40
40
80
80
ENDCHAR

STARTCHAR zero
ENCODING 48
SWIDTH 542 0
DWIDTH 7 0
BBX 5 9 1 0
BITMAP
70
88
88
88
88
88
88
88
70
ENDCHAR

STARTCHAR one
ENCODING 49
SWIDTH 542 0
DWIDTH 7 0
BBX 3 9 2 0
BITMAP
C0
40
40
40
40
40
40
40
E0
ENDCHAR

STARTCHAR two
ENCODING 50
SWIDTH 542 0
DWIDTH 7 0
BBX 5 9 1 0
BITMAP
70
88
88
08
10
20
48
88
F8
ENDCHAR

STARTCHAR three
ENCODING 51
SWIDTH 542 0
DWIDTH 7 0
BBX 5 9 1 0
BITMAP
70
88
88
10
30
08
88
88
70
ENDCHAR

STARTCHAR four
ENCODING 52
SWIDTH 542 0
DWIDTH 7 0
BBX 5 9 1 0
BITMAP
10
30
30
50
50
90
F8
10
38
ENDCHAR

STARTCHAR five
ENCODING 53
SWIDTH 542 0
DWIDTH 7 0
BBX 5 9 1 0
BITMAP
F8
88
80
F0
88
08
88
88
70
ENDCHAR

STARTCHAR six
ENCODING 54
SWIDTH 542 0
DWIDTH 7 0
BBX 5 9 1 0
BITMAP
70
88
80
B0
C8
88
88
88
70
ENDCHAR

STARTCHAR seven
ENCODING 55
SWIDTH 542 0
DWIDTH 7 0
BBX 5 9 1 0
BITMAP
F8
88
08
10
10
20
20
20
70
ENDCHAR

STARTCHAR eight
ENCODING 56
SWIDTH 542 0
DWIDTH 7 0
BBX 5 9 1 0
BITMAP
70
88
88
88
70
88
88
88
70
ENDCHAR

STARTCHAR nine
ENCODING 57
SWIDTH 542 0
DWIDTH 7 0
BBX 5 9 1 0
BITMAP
70
88
88
88
98
68
08
88
70
ENDCHAR

STARTCHAR colon
ENCODING 58
SWIDTH 292 0
DWIDTH 4 0
BBX 1 6 1 0
BITMAP
80
80
00
00
80
80
ENDCHAR

STARTCHAR semicolon
ENCODING 59
SWIDTH 292 0
DWIDTH 4 0
BBX 2 8 0 -2
BITMAP
40
40
00
00
40
40
40
80
ENDCHAR

STARTCHAR less
ENCODING 60
SWIDTH 667 0
DWIDTH 9 0
BBX 7 7 0 1
BITMAP
02
0C
30
C0
30
0C
02
ENDCHAR

STARTCHAR equal
ENCODING 61
SWIDTH 667 0
DWIDTH 9 0
BBX 7 4 1 2
BITMAP
FE
00
00
FE
ENDCHAR

STARTCHAR greater
ENCODING 62
SWIDTH 667 0
DWIDTH 9 0
BBX 7 7 1 1
BITMAP
80
60
18
06
18
60
80
ENDCHAR

STARTCHAR question
ENCODING 63
SWIDTH 469 0
DWIDTH 6 0
BBX 5 9 0 0
BITMAP
70
88
88
08
30
20
00
20
20
ENDCHAR

STARTCHAR at
ENCODING 64
SWIDTH 1010 0
DWIDTH 13 0
BBX 12 12 0 -3
BITMAP
0F80
1040
2020
4690
4990
8890
9110
9320
4EC0
4010
3060
0F80
ENDCHAR

STARTCHAR A
ENCODING 65
SWIDTH 698 0
DWIDTH 9 0
BBX 9 9 0 0
BITMAP
1C00
0800
1400
1400
2200
3E00
4100
4100
E380
ENDCHAR

STARTCHAR B
ENCODING 66
SWIDTH 583 0
DWIDTH 8 0
BBX 6 9 0 0
BITMAP
F8
44
44
44
78
44
44
44
F8
ENDCHAR

STARTCHAR C
ENCODING 67
SWIDTH 760 0
DWIDTH 10 0
BBX 7 9 1 0
BITMAP
3A
46
82
80
80
82
82
44
38
ENDCHAR

STARTCHAR D
ENCODING 68
SWIDTH 729 0
DWIDTH 9 0
BBX 7 9 0 0
BITMAP
F8
44
42
42
42
42
42
44
F8
ENDCHAR

STARTCHAR E
ENCODING 69
SWIDTH 625 0
DWIDTH 8 0
BBX 6 9 0 0
BITMAP
FC
44
44
40
78
40
44
44
FC
ENDCHAR

STARTCHAR F
ENCODING 70
SWIDTH 552 0
DWIDTH 7 0
BBX 6 9 0 0
BITMAP
FC
44
44
40
78
40
40
40
F0
ENDCHAR

STARTCHAR G
ENCODING 71
SWIDTH 802 0
DWIDTH 10 0
BBX 7 9 1 0
BITMAP
3A
46
82
80
80
86
82
44
38
ENDCHAR

STARTCHAR H
ENCODING 72
SWIDTH 708 0
DWIDTH 9 0
BBX 8 9 0 0
BITMAP
E7
42
42
42
7E
42
42
42
E7
ENDCHAR

STARTCHAR I
ENCODING 73
SWIDTH 313 0
DWIDTH 4 0
BBX 3 9 0 0
BITMAP
E0
40
40
40
40
40
40
40
E0
ENDCHAR

STARTCHAR J
ENCODING 74
SWIDTH 313 0
DWIDTH 4 0
BBX 4 12 -1 -3
BITMAP
70
20
20
20
20
20
20
20
20
20
20
C0
ENDCHAR

STARTCHAR K
ENCODING 75
SWIDTH 625 0
DWIDTH 8 0
BBX 8 9 0 0
BITMAP
EF
44
48
50
60
50
48
44
EF
ENDCHAR

STARTCHAR L
ENCODING 76
SWIDTH 521 0
DWIDTH 7 0
BBX 6 9 0 0
BITMAP
E0
40
40
40
40
44
44
44
FC
ENDCHAR

STARTCHAR M
ENCODING 77
SWIDTH 875 0
DWIDTH 11 0
BBX 11 9 0 0
BITMAP
E0E0
60C0
5140
5140
5140
4A40
4A40
4440
E4E0
ENDCHAR

STARTCHAR N
ENCODING 78
SWIDTH 719 0
DWIDTH 9 0
BBX 8 9 0 0
BITMAP
E7
62
52
52
52
4A
4A
46
E6
ENDCHAR

STARTCHAR O
ENCODING 79
SWIDTH 802 0
DWIDTH 10 0
BBX 7 9 1 0
BITMAP
38
44
82
82
82
82
82
44
38
ENDCHAR

STARTCHAR P
ENCODING 80
SWIDTH 573 0
DWIDTH 7 0
BBX 6 9 0 0
BITMAP
F8
44
44
44
44
78
40
40
E0
ENDCHAR

STARTCHAR Q
ENCODING 81
SWIDTH 802 0
DWIDTH 10 0
BBX 7 10 1 -1
BITMAP
38
44
82
82
82
82
82
44
38
4C
ENDCHAR

STARTCHAR R
ENCODING 82
SWIDTH 604 0
DWIDTH 8 0
BBX 7 9 0 0
BITMAP
F8
44
44
44
78
50
48
48
E6
ENDCHAR

STARTCHAR S
ENCODING 83
SWIDTH 531 0
DWIDTH 7 0
BBX 4 9 1 0
BITMAP
70
90
90
40
20
10
90
90
E0
ENDCHAR

STARTCHAR T
ENCODING 84
SWIDTH 573 0
DWIDTH 7 0
BBX 7 9 0 0
BITMAP
FE
92
92
10
10
10
10
10
38
ENDCHAR

STARTCHAR U
ENCODING 85
SWIDTH 677 0
DWIDTH 9 0
BBX 8 9 0 0
BITMAP
E7
42
42
42
42
42
42
42
3C
ENDCHAR

STARTCHAR V
ENCODING 86
SWIDTH 708 0
DWIDTH 9 0
BBX 7 9 1 0
BITMAP
EE
44
44
44
28
28
28
10
10
ENDCHAR

STARTCHAR W
ENCODING 87
SWIDTH 1000 0
DWIDTH 13 0
BBX 11 9 1 0
BITMAP
EEE0
4440
4440
4440
2A80
2A80
2A80
1100
1100
ENDCHAR

STARTCHAR X
ENCODING 88
SWIDTH 656 0
DWIDTH 9 0
BBX 7 9 1 0
BITMAP
EE
44
28
28
10
28
28
44
EE
ENDCHAR

STARTCHAR Y
ENCODING 89
SWIDTH 646 0
DWIDTH 8 0
BBX 7 9 0 0
BITMAP
EE
44
28
28
10
10
10
10
38
ENDCHAR

STARTCHAR Z
ENCODING 90
SWIDTH 563 0
DWIDTH 7 0
BBX 6 9 0 0
BITMAP
FC
84
88
10
10
20
44
84
FC
ENDCHAR

STARTCHAR bracketleft
ENCODING 91
SWIDTH 375 0
DWIDTH 5 0
BBX 3 12 1 -3
BITMAP
E0
80
80
80
80
80
80
80
80
80
80
E0
ENDCHAR

STARTCHAR backslash
ENCODING 92
SWIDTH 438 0
DWIDTH 6 0
BBX 5 9 0 0
BITMAP
80
40
40
20
20
10
10
08
08
ENDCHAR

STARTCHAR bracketright
ENCODING 93
SWIDTH 375 0
DWIDTH 5 0
BBX 3 12 0 -3
BITMAP
E0
20
20
20
20
20
20
20
20
20
20
E0
ENDCHAR

STARTCHAR asciicircum
ENCODING 94
SWIDTH 469 0
DWIDTH 6 0
BBX 5 3 1 6
BITMAP
20
50
88
ENDCHAR

STARTCHAR underscore
ENCODING 95
SWIDTH 500 0
DWIDTH 7 0
BBX 7 1 0 -2
BITMAP
FE
ENDCHAR

STARTCHAR quoteleft
ENCODING 96
SWIDTH 292 0
DWIDTH 4 0
BBX 2 4 1 5
BITMAP
40
80
80
80
ENDCHAR

STARTCHAR a
ENCODING 97
SWIDTH 531 0
DWIDTH 7 0
BBX 6 6 1 0
BITMAP
70
88
78
88
98
6C
ENDCHAR

STARTCHAR b
ENCODING 98
SWIDTH 646 0
DWIDTH 8 0
BBX 7 9 0 0
BITMAP
C0
40
40
5C
62
42
42
62
DC
ENDCHAR

STARTCHAR c
ENCODING 99
SWIDTH 521 0
DWIDTH 7 0
BBX 5 6 1 0
BITMAP
78
88
80
80
88
70
ENDCHAR

STARTCHAR d
ENCODING 100
SWIDTH 625 0
DWIDTH 8 0
BBX 7 9 1 0
BITMAP
0C
04
04
74
8C
84
84
8C
76
ENDCHAR

STARTCHAR e
ENCODING 101
SWIDTH 573 0
DWIDTH 7 0
BBX 5 6 1 0
BITMAP
70
88
F8
80
88
70
ENDCHAR

STARTCHAR f
ENCODING 102
SWIDTH 292 0
DWIDTH 4 0
BBX 4 9 0 0
BITMAP
20
50
40
E0
40
40
40
40
E0
ENDCHAR

STARTCHAR g
ENCODING 103
SWIDTH 625 0
DWIDTH 8 0
BBX 7 9 1 -3
BITMAP
36
4C
84
84
4C
34
04
48
30
ENDCHAR

STARTCHAR h
ENCODING 104
SWIDTH 573 0
DWIDTH 7 0
BBX 7 9 0 0
BITMAP
C0
40
40
58
64
44
44
44
E6
ENDCHAR

STARTCHAR i
ENCODING 105
SWIDTH 292 0
DWIDTH 4 0
BBX 3 9 0 0
BITMAP
40
40
00
C0
40
40
40
40
E0
ENDCHAR

STARTCHAR j
ENCODING 106
SWIDTH 292 0
DWIDTH 4 0
BBX 3 12 -1 -3
BITMAP
20
20
00
60
20
20
20
20
20
20
20
C0
ENDCHAR

STARTCHAR k
ENCODING 107
SWIDTH 573 0
DWIDTH 7 0
BBX 7 9 0 0
BITMAP
C0
40
40
5C
50
60
50
48
E6
ENDCHAR

STARTCHAR l
ENCODING 108
SWIDTH 292 0
DWIDTH 4 0
BBX 3 9 0 0
BITMAP
C0
40
40
40
40
40
40
40
E0
ENDCHAR

STARTCHAR m
ENCODING 109
SWIDTH 865 0
DWIDTH 11 0
BBX 11 6 0 0
BITMAP
DD80
6640
4440
4440
4440
E660
ENDCHAR

STARTCHAR n
ENCODING 110
SWIDTH 573 0
DWIDTH 7 0
BBX 7 6 0 0
BITMAP
D8
64
44
44
44
E6
ENDCHAR

STARTCHAR o
ENCODING 111
SWIDTH 573 0
DWIDTH 7 0
BBX 5 6 1 0
BITMAP
70
88
88
88
88
70
ENDCHAR

STARTCHAR p
ENCODING 112
SWIDTH 625 0
DWIDTH 8 0
BBX 7 9 0 -3
BITMAP
DC
62
42
42
62
5C
40
40
E0
ENDCHAR

STARTCHAR q
ENCODING 113
SWIDTH 615 0
DWIDTH 8 0
BBX 7 9 1 -3
BITMAP
76
8C
84
84
8C
74
04
04
0E
ENDCHAR

STARTCHAR r
ENCODING 114
SWIDTH 417 0
DWIDTH 5 0
BBX 5 6 0 0
BITMAP
D8
60
40
40
40
E0
ENDCHAR

STARTCHAR s
ENCODING 115
SWIDTH 458 0
DWIDTH 6 0
BBX 4 6 1 0
BITMAP
70
90
40
20
90
E0
ENDCHAR

STARTCHAR t
ENCODING 116
SWIDTH 302 0
DWIDTH 4 0
BBX 3 8 0 0
BITMAP
40
40
E0
40
40
40
40
20
ENDCHAR

STARTCHAR u
ENCODING 117
SWIDTH 563 0
DWIDTH 7 0
BBX 7 6 0 0
BITMAP
CC
44
44
44
4C
36
ENDCHAR

STARTCHAR v
ENCODING 118
SWIDTH 542 0
DWIDTH 7 0
BBX 7 6 0 0
BITMAP
EE
44
28
28
10
10
ENDCHAR

STARTCHAR w
ENCODING 119
SWIDTH 771 0
DWIDTH 10 0
BBX 11 6 -1 0
BITMAP
EEE0
4440
2A80
2A80
1100
1100
ENDCHAR

STARTCHAR x
ENCODING 120
SWIDTH 552 0
DWIDTH 7 0
BBX 6 6 0 0
BITMAP
CC
48
30
30
48
CC
ENDCHAR

STARTCHAR y
ENCODING 121
SWIDTH 563 0
DWIDTH 7 0
BBX 7 9 0 -3
BITMAP
EE
44
44
28
28
10
20
20
E0
ENDCHAR

STARTCHAR z
ENCODING 122
SWIDTH 448 0
DWIDTH 6 0
BBX 4 6 1 0
BITMAP
F0
90
20
40
90
F0
ENDCHAR

STARTCHAR braceleft
ENCODING 123
SWIDTH 333 0
DWIDTH 4 0
BBX 3 12 0 -3
BITMAP
60
40
40
40
40
80
40
40
40
40
40
60
ENDCHAR

STARTCHAR bar
ENCODING 124
SWIDTH 527 0
DWIDTH 7 0
BBX 1 12 3 -3
BITMAP
80
80
80
80
80
80
80
80
80
80
80
80
ENDCHAR

STARTCHAR braceright
ENCODING 125
SWIDTH 333 0
DWIDTH 4 0
BBX 3 12 0 -3
BITMAP
C0
40
40
40
40
20
40
40
40
40
40
C0
ENDCHAR

STARTCHAR asciitilde
ENCODING 126
SWIDTH 583 0
DWIDTH 8 0
BBX 8 2 0 4
BITMAP
71
8E
ENDCHAR

STARTCHAR space
ENCODING 160
SWIDTH 250 0
DWIDTH 3 0
BBX 0 0 0 0
BITMAP
ENDCHAR

STARTCHAR exclamdown
ENCODING 161
SWIDTH 292 0
DWIDTH 4 0
BBX 1 9 1 -3
BITMAP
80
80
00
80
80
80
80
80
80
ENDCHAR

STARTCHAR cent
ENCODING 162
SWIDTH 521 0
DWIDTH 7 0
BBX 5 12 0 -3
BITMAP
08
10
10
78
A8
A0
C0
C8
70
40
80
80
ENDCHAR

STARTCHAR sterling
ENCODING 163
SWIDTH 542 0
DWIDTH 7 0
BBX 6 9 0 0
BITMAP
38
44
40
20
F8
20
64
A4
58
ENDCHAR

STARTCHAR currency
ENCODING 164
SWIDTH 667 0
DWIDTH 9 0
BBX 6 6 1 1
BITMAP
B4
48
84
84
48
B4
ENDCHAR

STARTCHAR yen
ENCODING 165
SWIDTH 646 0
DWIDTH 8 0
BBX 7 9 0 0
BITMAP
EE
44
28
FE
10
FE
10
10
38
ENDCHAR

STARTCHAR brokenbar
ENCODING 166
SWIDTH 527 0
DWIDTH 7 0
BBX 1 12 3 -3
BITMAP
80
80
80
80
80
00
00
80
80
80
80
80
ENDCHAR

STARTCHAR section
ENCODING 167
SWIDTH 479 0
DWIDTH 6 0
BBX 5 11 0 -2
BITMAP
70
88
80
60
90
88
48
30
08
88
70
ENDCHAR

STARTCHAR dieresis
ENCODING 168
SWIDTH 333 0
DWIDTH 4 0
BBX 3 2 0 6
BITMAP
A0
A0
ENDCHAR

STARTCHAR copyright
ENCODING 169
SWIDTH 740 0
DWIDTH 10 0
BBX 9 9 0 0
BITMAP
3E00
4100
9C80
A280
A080
A280
9C80
4100
3E00
ENDCHAR

STARTCHAR ordfeminine
ENCODING 170
SWIDTH 344 0
DWIDTH 4 0
BBX 3 4 0 5
BITMAP
C0
20
E0
A0
ENDCHAR

STARTCHAR guillemotleft
ENCODING 171
SWIDTH 479 0
DWIDTH 6 0
BBX 7 7 0 0
BITMAP
12
24
48
90
48
24
12
ENDCHAR

STARTCHAR logicalnot
ENCODING 172
SWIDTH 667 0
DWIDTH 9 0
BBX 7 4 1 2
BITMAP
FE
02
02
02
ENDCHAR

STARTCHAR hyphen
ENCODING 173
SWIDTH 354 0
DWIDTH 5 0
BBX 4 1 0 3
BITMAP
F0
ENDCHAR

STARTCHAR registered
ENCODING 174
SWIDTH 740 0
DWIDTH 10 0
BBX 9 9 0 0
BITMAP
3E00
4100
BC80
A280
BC80
A280
A280
4100
3E00
ENDCHAR

STARTCHAR macron
ENCODING 175
SWIDTH 333 0
DWIDTH 4 0
BBX 4 1 0 7
BITMAP
F0
ENDCHAR

STARTCHAR degree
ENCODING 176
SWIDTH 396 0
DWIDTH 5 0
BBX 4 4 0 5
BITMAP
60
90
90
60
ENDCHAR

STARTCHAR plusminus
ENCODING 177
SWIDTH 667 0
DWIDTH 9 0
BBX 7 9 1 0
BITMAP
10
10
10
FE
10
10
10
00
FE
ENDCHAR

STARTCHAR twosuperior
ENCODING 178
SWIDTH 333 0
DWIDTH 4 0
BBX 3 5 1 4
BITMAP
40
A0
40
A0
E0
ENDCHAR

STARTCHAR threesuperior
ENCODING 179
SWIDTH 333 0
DWIDTH 4 0
BBX 4 5 0 4
BITMAP
60
10
20
90
60
ENDCHAR

STARTCHAR acute
ENCODING 180
SWIDTH 333 0
DWIDTH 4 0
BBX 2 2 1 7
BITMAP
40
80
ENDCHAR

STARTCHAR mu
ENCODING 181
SWIDTH 552 0
DWIDTH 7 0
BBX 6 9 0 -3
BITMAP
88
88
88
88
98
EC
80
80
80
ENDCHAR

STARTCHAR paragraph
ENCODING 182
SWIDTH 542 0
DWIDTH 7 0
BBX 7 12 0 -3
BITMAP
3E
74
F4
F4
74
14
14
14
14
14
14
14
ENDCHAR

STARTCHAR periodcentered
ENCODING 183
SWIDTH 292 0
DWIDTH 4 0
BBX 1 2 1 4
BITMAP
80
80
ENDCHAR

STARTCHAR cedilla
ENCODING 184
SWIDTH 333 0
DWIDTH 4 0
BBX 3 3 0 -3
BITMAP
40
20
C0
ENDCHAR

STARTCHAR onesuperior
ENCODING 185
SWIDTH 333 0
DWIDTH 4 0
BBX 3 5 0 4
BITMAP
C0
40
40
40
E0
ENDCHAR

STARTCHAR ordmasculine
ENCODING 186
SWIDTH 375 0
DWIDTH 5 0
BBX 4 5 0 4
BITMAP
60
90
90
90
60
ENDCHAR

STARTCHAR guillemotright
ENCODING 187
SWIDTH 479 0
DWIDTH 6 0
BBX 7 7 -1 0
BITMAP
90
48
24
12
24
48
90
ENDCHAR

STARTCHAR onequarter
ENCODING 188
SWIDTH 969 0
DWIDTH 13 0
BBX 9 9 2 0
BITMAP
C080
4100
4200
4400
E900
1300
2500
4780
8100
ENDCHAR

STARTCHAR onehalf
ENCODING 189
SWIDTH 969 0
DWIDTH 13 0
BBX 9 9 1 0
BITMAP
C080
4100
4200
4400
E900
1280
2100
4280
8380
ENDCHAR

STARTCHAR threequarters
ENCODING 190
SWIDTH 969 0
DWIDTH 13 0
BBX 11 9 0 0
BITMAP
6040
1080
2080
9100
6240
04C0
0940
11E0
2040
ENDCHAR

STARTCHAR questiondown
ENCODING 191
SWIDTH 469 0
DWIDTH 6 0
BBX 5 9 0 -3
BITMAP
20
20
00
20
60
80
88
88
70
ENDCHAR

STARTCHAR Agrave
ENCODING 192
SWIDTH 698 0
DWIDTH 9 0
BBX 9 12 0 0
BITMAP
1000
0800
0000
1C00
0800
1400
1400
2200
3E00
4100
4100
E380
ENDCHAR

STARTCHAR Aacute
ENCODING 193
SWIDTH 698 0
DWIDTH 9 0
BBX 9 12 0 0
BITMAP
0400
0800
0000
1C00
0800
1400
1400
2200
3E00
4100
4100
E380
ENDCHAR

STARTCHAR Acircumflex
ENCODING 194
SWIDTH 698 0
DWIDTH 9 0
BBX 9 12 0 0
BITMAP
0800
1400
0000
1C00
0800
1400
1400
2200
3E00
4100
4100
E380
ENDCHAR

STARTCHAR Atilde
ENCODING 195
SWIDTH 698 0
DWIDTH 9 0
BBX 9 12 0 0
BITMAP
1A00
2C00
0000
1C00
0800
1400
1400
2200
3E00
4100
4100
E380
ENDCHAR

STARTCHAR Adieresis
ENCODING 196
SWIDTH 698 0
DWIDTH 9 0
BBX 9 11 0 0
BITMAP
1400
0000
1C00
0800
1400
1400
2200
3E00
4100
4100
E380
ENDCHAR

STARTCHAR Aring
ENCODING 197
SWIDTH 698 0
DWIDTH 9 0
BBX 9 12 0 0
BITMAP
0800
1400
0800
1C00
0800
1400
1400
2200
3E00
4100
4100
E380
ENDCHAR

STARTCHAR AE
ENCODING 198
SWIDTH 938 0
DWIDTH 12 0
BBX 11 9 0 0
BITMAP
1FE0
0A20
1220
1200
3FC0
2200
4220
4220
EFE0
ENDCHAR

STARTCHAR Ccedilla
ENCODING 199
SWIDTH 760 0
DWIDTH 10 0
BBX 7 12 1 -3
BITMAP
3A
46
82
80
80
80
82
44
38
10
08
30
ENDCHAR

STARTCHAR Egrave
ENCODING 200
SWIDTH 625 0
DWIDTH 8 0
BBX 6 12 0 0
BITMAP
10
08
00
FC
44
44
40
78
40
44
44
FC
ENDCHAR

STARTCHAR Eacute
ENCODING 201
SWIDTH 625 0
DWIDTH 8 0
BBX 6 12 0 0
BITMAP
08
10
00
FC
44
44
40
78
40
44
44
FC
ENDCHAR

STARTCHAR Ecircumflex
ENCODING 202
SWIDTH 625 0
DWIDTH 8 0
BBX 6 12 0 0
BITMAP
10
28
00
FC
44
44
40
78
40
44
44
FC
ENDCHAR

STARTCHAR Edieresis
ENCODING 203
SWIDTH 625 0
DWIDTH 8 0
BBX 6 11 0 0
BITMAP
28
00
FC
44
44
40
78
40
44
44
FC
ENDCHAR

STARTCHAR Igrave
ENCODING 204
SWIDTH 313 0
DWIDTH 4 0
BBX 3 12 0 0
BITMAP
80
40
00
E0
40
40
40
40
40
40
40
E0
ENDCHAR

STARTCHAR Iacute
ENCODING 205
SWIDTH 313 0
DWIDTH 4 0
BBX 3 12 0 0
BITMAP
20
40
00
E0
40
40
40
40
40
40
40
E0
ENDCHAR

STARTCHAR Icircumflex
ENCODING 206
SWIDTH 313 0
DWIDTH 4 0
BBX 3 12 0 0
BITMAP
40
A0
00
E0
40
40
40
40
40
40
40
E0
ENDCHAR

STARTCHAR Idieresis
ENCODING 207
SWIDTH 313 0
DWIDTH 4 0
BBX 3 11 0 0
BITMAP
A0
00
E0
40
40
40
40
40
40
40
E0
ENDCHAR

STARTCHAR Eth
ENCODING 208
SWIDTH 729 0
DWIDTH 9 0
BBX 7 9 0 0
BITMAP
F8
44
42
42
F2
42
42
44
F8
ENDCHAR

STARTCHAR Ntilde
ENCODING 209
SWIDTH 719 0
DWIDTH 9 0
BBX 8 12 0 0
BITMAP
1A
2C
00
E7
62
52
52
52
4A
4A
46
E6
ENDCHAR

STARTCHAR Ograve
ENCODING 210
SWIDTH 802 0
DWIDTH 10 0
BBX 7 12 1 0
BITMAP
20
10
00
38
44
82
82
82
82
82
44
38
ENDCHAR

STARTCHAR Oacute
ENCODING 211
SWIDTH 802 0
DWIDTH 10 0
BBX 7 12 1 0
BITMAP
08
10
00
38
44
82
82
82
82
82
44
38
ENDCHAR

STARTCHAR Ocircumflex
ENCODING 212
SWIDTH 802 0
DWIDTH 10 0
BBX 7 12 1 0
BITMAP
10
28
00
38
44
82
82
82
82
82
44
38
ENDCHAR

STARTCHAR Otilde
ENCODING 213
SWIDTH 802 0
DWIDTH 10 0
BBX 7 12 1 0
BITMAP
34
58
00
38
44
82
82
82
82
82
44
38
ENDCHAR

STARTCHAR Odieresis
ENCODING 214
SWIDTH 802 0
DWIDTH 10 0
BBX 7 11 1 0
BITMAP
28
00
38
44
82
82
82
82
82
44
38
ENDCHAR

STARTCHAR multiply
ENCODING 215
SWIDTH 668 0
DWIDTH 9 0
BBX 6 6 1 1
BITMAP
84
48
30
30
48
84
ENDCHAR

STARTCHAR Oslash
ENCODING 216
SWIDTH 802 0
DWIDTH 10 0
BBX 7 9 1 0
BITMAP
3A
44
8A
8A
92
92
A2
44
B8
ENDCHAR

STARTCHAR Ugrave
ENCODING 217
SWIDTH 677 0
DWIDTH 9 0
BBX 8 12 0 0
BITMAP
10
08
00
E7
42
42
42
42
42
42
42
3C
ENDCHAR

STARTCHAR Uacute
ENCODING 218
SWIDTH 677 0
DWIDTH 9 0
BBX 8 12 0 0
BITMAP
08
10
00
E7
42
42
42
42
42
42
42
3C
ENDCHAR

STARTCHAR Ucircumflex
ENCODING 219
SWIDTH 677 0
DWIDTH 9 0
BBX 8 12 0 0
BITMAP
08
14
00
E7
42
42
42
42
42
42
42
3C
ENDCHAR

STARTCHAR Udieresis
ENCODING 220
SWIDTH 677 0
DWIDTH 9 0
BBX 8 11 0 0
BITMAP
24
00
E7
42
42
42
42
42
42
42
3C
ENDCHAR

STARTCHAR Yacute
ENCODING 221
SWIDTH 646 0
DWIDTH 8 0
BBX 7 12 0 0
BITMAP
08
10
00
EE
44
28
28
10
10
10
10
38
ENDCHAR

STARTCHAR Thorn
ENCODING 222
SWIDTH 573 0
DWIDTH 7 0
BBX 6 9 0 0
BITMAP
E0
40
78
44
44
44
78
40
E0
ENDCHAR

STARTCHAR germandbls
ENCODING 223
SWIDTH 646 0
DWIDTH 8 0
BBX 7 9 0 0
BITMAP
38
44
44
44
4C
42
42
42
EC
ENDCHAR

STARTCHAR agrave
ENCODING 224
SWIDTH 531 0
DWIDTH 7 0
BBX 6 9 1 0
BITMAP
40
20
00
70
88
78
88
98
6C
ENDCHAR

STARTCHAR aacute
ENCODING 225
SWIDTH 531 0
DWIDTH 7 0
BBX 6 9 1 0
BITMAP
10
20
00
70
88
78
88
98
6C
ENDCHAR

STARTCHAR acircumflex
ENCODING 226
SWIDTH 531 0
DWIDTH 7 0
BBX 6 9 1 0
BITMAP
20
50
00
70
88
78
88
98
6C
ENDCHAR

STARTCHAR atilde
ENCODING 227
SWIDTH 531 0
DWIDTH 7 0
BBX 6 9 1 0
BITMAP
68
B0
00
70
88
78
88
98
6C
ENDCHAR

STARTCHAR adieresis
ENCODING 228
SWIDTH 531 0
DWIDTH 7 0
BBX 6 8 1 0
BITMAP
50
00
70
88
78
88
98
6C
ENDCHAR

STARTCHAR aring
ENCODING 229
SWIDTH 531 0
DWIDTH 7 0
BBX 6 10 1 0
BITMAP
20
50
20
00
70
88
78
88
98
6C
ENDCHAR

STARTCHAR ae
ENCODING 230
SWIDTH 885 0
DWIDTH 12 0
BBX 9 6 1 0
BITMAP
7300
8C80
7F80
8800
9880
6700
ENDCHAR

STARTCHAR ccedilla
ENCODING 231
SWIDTH 521 0
DWIDTH 7 0
BBX 5 9 1 -3
BITMAP
78
88
80
80
88
70
20
10
60
ENDCHAR

STARTCHAR egrave
ENCODING 232
SWIDTH 573 0
DWIDTH 7 0
BBX 5 9 1 0
BITMAP
40
20
00
70
88
F8
80
88
70
ENDCHAR

STARTCHAR eacute
ENCODING 233
SWIDTH 573 0
DWIDTH 7 0
BBX 5 9 1 0
BITMAP
10
20
00
70
88
F8
80
88
70
ENDCHAR

STARTCHAR ecircumflex
ENCODING 234
SWIDTH 573 0
DWIDTH 7 0
BBX 5 9 1 0
BITMAP
20
50
00
70
88
F8
80
88
70
ENDCHAR

STARTCHAR edieresis
ENCODING 235
SWIDTH 573 0
DWIDTH 7 0
BBX 5 8 1 0
BITMAP
50
00
70
88
F8
80
88
70
ENDCHAR

STARTCHAR igrave
ENCODING 236
SWIDTH 292 0
DWIDTH 4 0
BBX 3 9 0 0
BITMAP
80
40
00
C0
40
40
40
40
E0
ENDCHAR

STARTCHAR iacute
ENCODING 237
SWIDTH 292 0
DWIDTH 4 0
BBX 3 9 0 0
BITMAP
20
40
00
C0
40
40
40
40
E0
ENDCHAR

STARTCHAR icircumflex
ENCODING 238
SWIDTH 292 0
DWIDTH 4 0
BBX 3 9 0 0
BITMAP
40
A0
00
C0
40
40
40
40
E0
ENDCHAR

STARTCHAR idieresis
ENCODING 239
SWIDTH 292 0
DWIDTH 4 0
BBX 3 8 0 0
BITMAP
A0
00
C0
40
40
40
40
E0
ENDCHAR

STARTCHAR eth
ENCODING 240
SWIDTH 573 0
DWIDTH 7 0
BBX 5 10 1 0
BITMAP
48
30
50
08
78
88
88
88
88
70
ENDCHAR

STARTCHAR ntilde
ENCODING 241
SWIDTH 573 0
DWIDTH 7 0
BBX 7 9 0 0
BITMAP
34
58
00
D8
64
44
44
44
E6
ENDCHAR

STARTCHAR ograve
ENCODING 242
SWIDTH 573 0
DWIDTH 7 0
BBX 5 9 1 0
BITMAP
40
20
00
70
88
88
88
88
70
ENDCHAR

STARTCHAR oacute
ENCODING 243
SWIDTH 573 0
DWIDTH 7 0
BBX 5 9 1 0
BITMAP
10
20
00
70
88
88
88
88
70
ENDCHAR

STARTCHAR ocircumflex
ENCODING 244
SWIDTH 573 0
DWIDTH 7 0
BBX 5 9 1 0
BITMAP
20
50
00
70
88
88
88
88
70
ENDCHAR

STARTCHAR otilde
ENCODING 245
SWIDTH 573 0
DWIDTH 7 0
BBX 5 9 1 0
BITMAP
68
B0
00
70
88
88
88
88
70
ENDCHAR

STARTCHAR odieresis
ENCODING 246
SWIDTH 573 0
DWIDTH 7 0
BBX 5 8 1 0
BITMAP
50
00
70
88
88
88
88
70
ENDCHAR

STARTCHAR divide
ENCODING 247
SWIDTH 668 0
DWIDTH 9 0
BBX 7 7 1 1
BITMAP
10
00
00
FE
00
00
10
ENDCHAR

STARTCHAR oslash
ENCODING 248
SWIDTH 573 0
DWIDTH 7 0
BBX 5 8 1 -1
BITMAP
08
70
98
A8
A8
C8
70
80
ENDCHAR

STARTCHAR ugrave
ENCODING 249
SWIDTH 563 0
DWIDTH 7 0
BBX 7 9 0 0
BITMAP
20
10
00
CC
44
44
44
4C
36
ENDCHAR

STARTCHAR uacute
ENCODING 250
SWIDTH 563 0
DWIDTH 7 0
BBX 7 9 0 0
BITMAP
08
10
00
CC
44
44
44
4C
36
ENDCHAR

STARTCHAR ucircumflex
ENCODING 251
SWIDTH 563 0
DWIDTH 7 0
BBX 7 9 0 0
BITMAP
10
28
00
CC
44
44
44
4C
36
ENDCHAR

STARTCHAR udieresis
ENCODING 252
SWIDTH 563 0
DWIDTH 7 0
BBX 7 8 0 0
BITMAP
28
00
CC
44
44
44
4C
36
ENDCHAR

STARTCHAR yacute
ENCODING 253
SWIDTH 563 0
DWIDTH 7 0
BBX 7 12 0 -3
BITMAP
08
10
00
EE
44
44
28
28
10
20
20
E0
ENDCHAR

STARTCHAR thorn
ENCODING 254
SWIDTH 625 0
DWIDTH 8 0
BBX 7 12 0 -3
BITMAP
C0
40
40
5C
62
42
42
62
5C
40
40
E0
ENDCHAR

STARTCHAR ydieresis
ENCODING 255
SWIDTH 563 0
DWIDTH 7 0
BBX 7 11 0 -3
BITMAP
28
00
EE
44
44
28
28
10
20
20
E0
ENDCHAR
ENDFONT
